<svg width="78" height="31" viewBox="0 0 78 31" fill="none" xmlns="http://www.w3.org/2000/svg">
<path d="M25.3369 0.843586C25.721 0.651376 26.468 0.384419 26.9908 0.245601C27.6631 0.0747481 28.2606 0 28.9649 0C29.5945 0 30.3414 0.0747481 30.9389 0.202888C31.5365 0.341706 32.3048 0.619341 32.9877 0.950368C33.6599 1.27072 34.0868 1.54835 34.0868 1.64446C34.0868 1.72988 33.4359 2.6589 32.6356 3.70537C31.8353 4.74116 31.1203 5.67018 31.035 5.7556C30.9069 5.89442 30.8429 5.87306 30.4908 5.52068C30.2667 5.30711 29.8185 4.99744 29.4984 4.83727C29.0289 4.60235 28.7515 4.54895 28.1433 4.53828C27.471 4.5276 27.343 4.55963 27.0975 4.79456C26.9375 4.94405 26.7668 5.17897 26.7134 5.32847C26.6387 5.53136 26.66 5.63814 26.7988 5.78764C26.9055 5.89442 27.4497 6.12934 28.0045 6.31087C28.5594 6.4924 29.2317 6.74868 29.4984 6.8875C29.7652 7.01564 30.128 7.2826 30.3201 7.48549C30.5121 7.6777 30.7255 8.00872 30.8109 8.21161C30.8963 8.4145 31.003 8.83095 31.0457 9.11927C31.0777 9.41826 31.0563 9.96285 30.9923 10.3473C30.9283 10.7317 30.7682 11.287 30.6402 11.5753C30.5228 11.8743 30.256 12.3761 30.0533 12.6965C29.8505 13.0168 29.4451 13.5401 29.1463 13.8498C28.8368 14.1701 28.3247 14.6293 28.0045 14.8855C27.6844 15.1418 27.0335 15.5369 26.564 15.7825C26.0945 16.0281 25.5396 16.2737 25.3369 16.3378C25.1342 16.4019 24.6753 16.5193 24.3232 16.5941C23.9711 16.6795 23.2455 16.7436 22.7226 16.7542C22.1997 16.7542 21.4741 16.7009 21.122 16.6368C20.7699 16.5727 20.1403 16.4019 19.7348 16.263C19.3294 16.1136 18.6038 15.7718 18.1343 15.4942C17.6648 15.2166 17.2806 14.9176 17.2913 14.8322C17.2913 14.7467 17.9849 13.743 20.3751 10.5608L20.8659 11.1268C21.1327 11.4258 21.6129 11.8316 21.933 12.0024C22.4558 12.2907 22.5946 12.3228 23.4909 12.3228C24.4299 12.3228 24.4832 12.3121 24.7927 12.0024C24.9741 11.8316 25.1448 11.5753 25.1768 11.4471C25.2088 11.3083 25.1875 11.1161 25.1342 11.02C25.0808 10.9132 24.8781 10.7424 24.686 10.6463C24.4832 10.5395 23.9391 10.3579 23.4695 10.2405C22.9253 10.091 22.4025 9.86675 22.0397 9.62115C21.6342 9.34351 21.3674 9.0552 21.1434 8.63874C20.8553 8.11551 20.8126 7.95533 20.8232 7.19717C20.8232 6.72733 20.9086 6.05459 21.0153 5.70221C21.1113 5.34983 21.3674 4.73049 21.5809 4.32471C21.8049 3.91894 22.2851 3.2462 22.6693 2.84043C23.0534 2.42397 23.6509 1.89006 24.0031 1.64446C24.3552 1.38818 24.9528 1.03579 25.3369 0.843586Z" fill="white"/>
<path d="M9.49109 3.51316C9.9606 2.82975 10.6328 1.84735 10.985 1.34547L11.6145 0.416454H18.0809L18.0276 0.87562C18.0062 1.12122 17.9315 1.82599 17.8675 2.44533C17.8141 3.06467 17.6861 4.3781 17.6007 5.38186C17.5047 6.38562 17.366 7.94465 17.2806 8.85231C17.1846 9.75996 17.0245 11.586 16.8965 12.9101C16.7791 14.2342 16.651 15.5583 16.5337 16.3805L11.0383 16.4339V16.199C11.0383 16.0602 11.113 15.6651 11.1984 15.3127C11.2837 14.9603 11.3478 14.5866 11.3584 14.4904C11.3584 14.3196 11.1984 14.2982 7.73045 14.2982L7.20759 15.1845C6.91948 15.6651 6.61004 16.1456 6.514 16.2524C6.36461 16.4125 6.07651 16.4339 3.56892 16.4339C1.82962 16.4339 0.773231 16.3912 0.74122 16.3271C0.709208 16.2737 1.29609 15.334 2.04303 14.2448C2.80064 13.1663 4.17715 11.1695 5.11616 9.81336C6.05517 8.46789 7.22893 6.77004 7.73045 6.05459C8.23196 5.33915 9.02159 4.18589 9.49109 3.51316Z" fill="white"/>
<path d="M36.143 1.8137C36.2412 1.57347 36.398 1.18994 36.4983 0.929012L36.7011 0.416454H39.5074C41.044 0.416454 42.3138 0.43781 42.3138 0.469845C42.3138 0.50188 42.1644 0.87562 41.983 1.30275C41.8016 1.72988 41.6202 2.16769 41.5668 2.28516C41.5135 2.40262 41.3321 2.80839 41.1827 3.19281C41.0226 3.57723 40.7239 4.27132 40.5318 4.74116C40.3397 5.21101 40.1797 5.6595 40.1797 5.73425C40.1797 5.83035 40.5425 5.86239 41.6735 5.86239C43.1034 5.86239 43.1674 5.85171 43.3168 5.62746C43.3915 5.48865 43.9357 4.26064 45.5683 0.416454H51.1704L51.0637 0.662054C51.0103 0.790194 50.6795 1.56971 50.3381 2.39194C49.9859 3.21417 49.3777 4.63438 48.9829 5.54204C48.5988 6.44969 48.2146 7.34667 48.1292 7.51752C48.0546 7.69905 47.5424 8.87367 47.0088 10.1337C46.4646 11.3937 45.9631 12.579 45.8778 12.7499C45.8031 12.9314 45.4403 13.7643 45.0775 14.6186C44.7147 15.4729 44.3412 16.231 44.2452 16.3058C44.1171 16.4125 43.4662 16.4339 38.9525 16.3805L38.9739 16.1456C38.9952 16.0068 39.0913 15.6971 39.198 15.4515C39.3153 15.1952 39.5714 14.5866 39.7849 14.0847C39.9876 13.5828 40.3824 12.6645 40.6492 12.0344C40.9159 11.4044 41.14 10.8064 41.14 10.721C41.14 10.5929 40.8946 10.5608 39.6675 10.5608C38.6004 10.5502 38.1629 10.5929 38.0776 10.689C38.0135 10.7637 37.7361 11.3617 37.4693 12.0024C37.2132 12.6538 36.7971 13.6575 36.5517 14.2448C36.3062 14.8322 36.0395 15.5156 35.9541 15.7718C35.8688 16.0174 35.7194 16.263 35.6127 16.3164C35.5166 16.3805 34.2895 16.4232 32.8917 16.4232C31.3017 16.4339 30.3414 16.4019 30.3094 16.3271C30.2774 16.2737 30.5015 15.6117 30.8002 14.8642C31.099 14.1167 31.6966 12.6538 32.1234 11.6287C32.5395 10.6035 33.1371 9.14062 33.4572 8.37179C33.7667 7.61363 34.1935 6.55648 34.4176 6.02256C34.631 5.49932 35.0685 4.44217 35.3779 3.67333C35.6874 2.91518 36.0181 2.09295 36.1248 1.85802L36.143 1.8137Z" fill="white"/>
<path d="M51.6932 4.43149C51.7466 4.31403 52.1521 3.36366 52.6109 2.31719L53.4219 0.427132H56.2389C58.8638 0.427132 59.0559 0.43781 59.0132 0.608663C58.9919 0.715446 58.7358 1.32411 58.4477 1.97549C58.1596 2.61618 56.6337 6.07595 55.0545 9.66386C53.4859 13.2411 52.1414 16.2417 52.0774 16.3164C51.992 16.4232 51.3518 16.4553 49.3244 16.4446C47.6704 16.4446 46.6567 16.4019 46.6247 16.3378C46.5927 16.2737 46.9128 15.4515 47.329 14.4904L47.3844 14.3638C47.7851 13.4489 48.2096 12.4794 48.332 12.1733C48.4707 11.8422 49.2603 10.0162 50.0926 8.11551C50.9143 6.20409 51.6399 4.54895 51.6932 4.43149Z" fill="white"/>
<path d="M59.408 4.84795C60.3471 2.73364 61.1794 0.87562 61.2647 0.715446L61.4141 0.416454H64.1885C65.7144 0.416454 66.9628 0.427132 66.9628 0.448489C66.9628 0.459167 66.8561 0.736803 66.7067 1.05715C66.5757 1.35977 66.2637 2.03403 66.0047 2.59382L65.9598 2.69093C65.693 3.25688 65.4689 3.74808 65.4689 3.78012C65.4689 3.81215 65.1061 4.57031 64.6686 5.46729C64.2311 6.36427 63.8897 7.10107 63.9217 7.12242C63.9537 7.1331 64.0818 6.99429 64.2098 6.80208C64.3379 6.60987 64.6046 6.25748 64.8074 6.02256C65.0101 5.78764 65.757 4.97609 66.472 4.21793C67.1762 3.44909 68.2646 2.28516 70.0039 0.427132H73.2264C75.0084 0.416454 76.4596 0.459167 76.4596 0.50188C76.4703 0.544593 76.2889 0.736803 76.0648 0.93969C75.8407 1.1319 73.92 2.9045 71.7859 4.89066C69.1396 7.34667 67.9125 8.55332 67.9232 8.69213C67.9232 8.8096 68.0192 9.55708 68.1366 10.3473C68.254 11.1375 68.446 12.4616 68.5634 13.2838C68.6808 14.106 68.8195 15.1098 68.8835 15.5049C68.9369 15.9 68.9689 16.2737 68.9369 16.3271C68.9049 16.4019 67.8485 16.4339 66.1092 16.4339C64.3699 16.4339 63.3135 16.4019 63.2815 16.3271C63.2495 16.2737 63.1534 15.4195 63.0574 14.4371C62.972 13.4547 62.8653 11.9277 62.8333 11.0414L62.8324 11.0183C62.7693 9.47145 62.7685 9.45234 62.6092 9.86675C62.5239 10.1017 62.3211 10.6356 62.1611 11.0414C61.9903 11.4578 61.4141 12.7712 60.8699 13.9779C60.3364 15.1845 59.8349 16.231 59.7708 16.3058C59.6748 16.4125 59.0559 16.4446 57.0605 16.4446C55.4493 16.4339 54.4569 16.3912 54.4249 16.3271C54.3929 16.2737 55.1185 14.5332 56.0361 12.4616C56.9538 10.39 58.469 6.96225 59.408 4.84795Z" fill="white"/>
<path d="M37.7788 17.9929C38.6004 17.8328 39.5821 17.6512 39.9556 17.5765C40.4464 17.4697 40.6492 17.4697 40.6812 17.5551C40.7025 17.6192 40.2437 19.1248 39.6461 20.8974C39.0593 22.6807 38.5791 24.1863 38.5791 24.2611C38.5791 24.3679 38.7178 24.3786 39.134 24.3252L39.1744 24.3196C39.5236 24.2714 40.4828 24.1389 41.3534 24.0262C42.2604 23.898 43.5409 23.7272 44.1811 23.6418C44.832 23.567 46.0805 23.3962 46.9555 23.2787C47.8411 23.1612 49.303 22.969 50.21 22.8409C51.117 22.7234 52.3975 22.5526 53.0377 22.4671C53.6886 22.3924 54.9371 22.2215 55.8121 22.1041C56.6977 21.9866 57.5834 21.8692 57.7861 21.8371C57.9889 21.8051 59.0986 21.6556 60.2403 21.5168L60.3925 21.4969C61.5097 21.3506 62.8827 21.1708 63.4949 21.079C64.1458 20.9935 65.7464 20.78 67.0695 20.5984C68.3927 20.4276 70.0253 20.214 70.6975 20.1286C71.3698 20.0432 72.4795 19.8937 73.1517 19.8082C73.824 19.7121 74.891 19.5733 75.5313 19.4879C76.1608 19.3918 76.7797 19.3277 76.9078 19.3277C77.0358 19.3277 77.1212 19.3491 77.0892 19.3704C77.0678 19.4025 73.8027 20.2354 69.8439 21.2391C65.8851 22.2322 62.5452 23.0758 62.4278 23.1078C62.3104 23.1399 61.2541 23.4068 60.0803 23.6951C58.9065 23.9835 54.3929 25.1154 50.0499 26.2045C45.707 27.3044 39.6568 28.8207 36.605 29.5896C33.5532 30.3584 31.0136 30.9884 30.9496 30.9991C30.8963 31.0098 30.8536 30.9244 30.8749 30.8069C30.8856 30.6894 31.4511 28.9062 32.1234 26.8559C32.7956 24.795 33.3292 23.0972 33.3185 23.0865C33.3078 23.0651 31.8353 23.1505 30.0426 23.268C28.25 23.3962 25.7851 23.567 24.5473 23.6524C23.3202 23.7379 20.9833 23.9087 19.372 24.0262C17.7608 24.1436 15.7227 24.2824 14.837 24.3465C13.9621 24.3999 12.6176 24.496 11.8493 24.5601C11.0917 24.6242 8.73348 24.7843 6.62071 24.9338C4.50793 25.0833 2.18175 25.2435 1.44548 25.2969C0.709208 25.3503 0.0689732 25.361 0.00494978 25.3289C-0.0484031 25.2969 0.335738 25.1794 0.858596 25.0833C1.39212 24.9765 2.49119 24.7737 3.31283 24.6135C4.13446 24.464 5.14817 24.2611 5.55365 24.1863C5.9698 24.1009 7.33564 23.834 8.59476 23.599C9.85389 23.3534 11.1023 23.1185 11.3691 23.0651C11.6359 23.0117 12.5215 22.8409 13.3432 22.6807C14.1648 22.5312 15.4346 22.2856 16.1709 22.1361C16.9071 21.9973 17.9849 21.7837 18.5718 21.6769C19.1586 21.5702 20.1403 21.378 20.7592 21.2605C21.3781 21.143 23.5336 20.7266 25.561 20.3422C27.5884 19.9577 29.4557 19.5947 29.7225 19.5413C29.9893 19.4879 30.8749 19.317 31.6966 19.1569C32.5182 19.0074 33.884 18.7404 34.7377 18.5802C35.5913 18.4094 36.9572 18.1424 37.7788 17.9929Z" fill="white"/>
<path d="M11.3887 8.29733C12.1036 7.10136 12.7652 5.96946 12.8399 5.78793C12.9145 5.59572 13.0213 5.43555 13.0746 5.43555C13.128 5.43555 13.0746 5.73454 12.9466 6.10828C12.8292 6.47134 12.5944 7.51781 12.413 8.42547C12.2423 9.33313 12.0822 10.1874 12.0502 10.3262C11.9969 10.5505 11.9435 10.5611 11.0365 10.5611C10.503 10.5611 10.0762 10.5398 10.0762 10.5077C10.0762 10.4757 10.6631 9.48262 11.3887 8.29733Z" fill="#191919"/>
</svg>
